# xmcd
#
# Track frame offsets:
#	150
#	12780
#	28655
#	42889
#	55167
#	65190
#	80252
#	91722
#	104602
#	120602
#	136200
#	148985
#	166377
#	183802
#	197695
#	209532
#
# Disc length: 2963 seconds
#
# Revision: 3
# Processed by: cddbd v1.5.2PL0 Copyright (c) Steve Scherf et al.
# Submitted via: audiograbber 1.83.01
#
DISCID=de0b9110
DTITLE=MH1050 Monster Hits - Male Country Hits (MH)
DYEAR=2008
DGENRE=Karaoke
TTITLE0=Ty England - Should've Asked Her Faster (MH)
TTITLE1=Randy Travis - He Walked On Water (MH)
TTITLE2=Mark Chesnutt - Brother Jukebox (MH)
TTITLE3=George Strait - Ace In The Hole (MH)
TTITLE4=George Strait - Heartland (MH)
TTITLE5=Alan Jackson - Summertime Blues (MH)
TTITLE6=Tracy Lawrence - If The Good Die Young (MH)
TTITLE7=Joe Diffie - New Way (To Light Up An Old Flame) (MH)
TTITLE8=John Anderson - I Wish I Could Have Been There (MH)
TTITLE9=Aaron Tippin - Working Man's Ph.D (MH)
TTITLE10=Sammy Kershaw - Haunted Heart (MH)
TTITLE11=Little Texas - Kick A Little (MH)
TTITLE12=Alan Jackson - Livin' On Love (MH)
TTITLE13=Randy Travis - Whisper My Name (MH)
TTITLE14=Garth Brooks - Callin' Baton Rouge (MH)
TTITLE15=Vince Gill - What The Cowgirls Do (MH)
EXTD=
EXTT0=
EXTT1=
EXTT2=
EXTT3=
EXTT4=
EXTT5=
EXTT6=
EXTT7=
EXTT8=
EXTT9=
EXTT10=
EXTT11=
EXTT12=
EXTT13=
EXTT14=
EXTT15=
PLAYORDER=
